<svg version="1.1" id="Layer_1" xmlns="http://www.w3.org/2000/svg" xmlns:xlink="http://www.w3.org/1999/xlink" x="0px" y="0px"
	 width="100%" viewBox="0 0 192 192" enable-background="new 0 0 192 192" xml:space="preserve">
<path fill="#000000" opacity="1.000000" stroke="none" 
	d="
M135.000000,193.000000 
	C90.028984,193.000000 45.557972,193.000000 1.043478,193.000000 
	C1.043478,129.070694 1.043478,65.141357 1.043478,1.106009 
	C64.887482,1.106009 128.775208,1.106009 192.831451,1.106009 
	C192.831451,64.999626 192.831451,128.999786 192.831451,193.000000 
	C173.808304,193.000000 154.654160,193.000000 135.000000,193.000000 
M48.355751,52.732254 
	C48.400055,53.233021 48.444359,53.733788 48.268482,55.098175 
	C48.368992,61.312122 48.469501,67.526070 48.541897,74.567657 
	C48.564682,75.120209 48.587471,75.672768 48.328747,77.093407 
	C48.298458,80.749672 48.230236,84.406082 48.244762,88.062164 
	C48.294682,100.622231 53.444256,110.528999 63.817146,117.644608 
	C70.118507,121.967201 76.480453,126.201500 83.102631,131.021454 
	C86.740562,135.452530 90.325165,139.929733 94.075699,144.263367 
	C94.618683,144.890762 95.957550,144.829376 97.495331,145.052429 
	C97.683815,145.069992 97.872292,145.087540 98.242477,145.589447 
	C98.323158,145.741852 98.403847,145.894257 98.587021,146.375763 
	C98.944809,146.263626 99.302589,146.151489 100.132324,145.516266 
	C103.833023,140.727570 107.533714,135.938889 111.856873,130.872452 
	C118.940933,126.030815 126.141808,121.349716 133.076965,116.303436 
	C140.346222,111.014038 145.615036,103.885925 146.065598,94.841904 
	C146.757584,80.951454 146.295151,67.003494 146.440857,52.315510 
	C146.272888,51.845161 146.104919,51.374809 146.025375,50.564560 
	C145.582413,50.662556 145.139435,50.760551 143.970642,51.119823 
	C136.531448,55.757683 129.101089,60.409790 121.651123,65.030266 
	C108.412170,73.241081 101.005585,85.177635 98.581154,101.106857 
	C98.375114,103.820480 98.172462,106.534447 97.905518,109.242065 
	C97.903290,109.264702 97.032288,109.201675 96.485153,108.242912 
	C96.397202,106.366318 96.309258,104.489731 96.448700,102.310959 
	C96.316414,101.711899 96.184120,101.112846 95.891045,99.658241 
	C94.028351,87.762611 89.311317,77.246941 79.620628,69.804466 
	C72.931519,64.667213 65.605942,60.341129 58.442631,55.847282 
	C55.440861,53.964146 52.123104,52.584702 48.656700,50.809494 
	C48.599216,51.201782 48.541737,51.594074 48.355751,52.732254 
z"/>
<path fill="#7AB043" opacity="1.000000" stroke="none" 
	d="
M146.322586,53.079933 
	C146.295151,67.003494 146.757584,80.951454 146.065598,94.841904 
	C145.615036,103.885925 140.346222,111.014038 133.076965,116.303436 
	C126.141808,121.349716 118.940933,126.030815 111.610489,130.627472 
	C113.622726,121.220116 115.964165,112.076851 118.087761,102.883270 
	C118.698097,100.240929 118.679871,97.453400 119.115387,94.481354 
	C120.298729,93.260025 121.316528,92.289772 122.662621,91.217667 
	C129.766281,87.024124 136.632797,83.071083 143.241318,78.725639 
	C144.589035,77.839439 145.625290,75.498222 145.676575,73.793785 
	C145.884903,66.869713 145.653763,59.932415 145.774750,52.968491 
	C145.964798,52.936989 146.322586,53.079933 146.322586,53.079933 
z"/>
<path fill="#5F9A66" opacity="1.000000" stroke="none" 
	d="
M82.815178,130.475464 
	C76.480453,126.201500 70.118507,121.967201 63.817146,117.644608 
	C53.444256,110.528999 48.294682,100.622231 48.244762,88.062164 
	C48.230236,84.406082 48.298458,80.749672 48.673496,76.871674 
	C56.919231,81.509010 64.820213,86.368080 72.909531,91.474419 
	C74.106781,92.750160 75.115707,93.778641 75.947433,95.118164 
	C75.960182,97.361488 75.904625,99.356979 76.382965,101.215027 
	C78.359344,108.892021 80.589783,116.504272 82.513039,124.193802 
	C83.011856,126.188118 82.735481,128.376328 82.815178,130.475464 
z"/>
<path fill="#ACD17C" opacity="1.000000" stroke="none" 
	d="
M146.381714,52.697723 
	C146.322586,53.079933 145.964798,52.936989 145.495544,53.101048 
	C137.462280,65.949905 129.898300,78.634712 122.334320,91.319511 
	C121.316528,92.289772 120.298729,93.260025 118.830666,94.680740 
	C112.170662,101.261993 105.960922,107.392792 98.911728,114.352379 
	C98.911728,109.023895 98.911728,104.773605 98.911728,100.523315 
	C101.005585,85.177635 108.412170,73.241081 121.651123,65.030266 
	C129.101089,60.409790 136.531448,55.757683 144.454315,51.109726 
	C145.270966,51.034573 145.603958,50.969517 145.936935,50.904461 
	C146.104919,51.374809 146.272888,51.845161 146.381714,52.697723 
z"/>
<path fill="#98C38C" opacity="1.000000" stroke="none" 
	d="
M76.124634,94.807121 
	C75.115707,93.778641 74.106781,92.750160 72.832062,91.123322 
	C64.845222,77.664413 57.124176,64.803871 49.313232,51.690460 
	C49.131897,51.283817 49.040451,51.130039 48.949009,50.976261 
	C52.123104,52.584702 55.440861,53.964146 58.442631,55.847282 
	C65.605942,60.341129 72.931519,64.667213 79.620628,69.804466 
	C89.311317,77.246941 94.028351,87.762611 95.851776,100.340591 
	C95.948769,101.553009 96.085037,102.083076 96.221313,102.613136 
	C96.309258,104.489731 96.397202,106.366318 96.370888,109.071075 
	C96.185478,111.272964 96.114334,112.646683 95.720100,113.915833 
	C88.972893,107.476547 82.548759,101.141838 76.124634,94.807121 
z"/>
<path fill="#397D46" opacity="1.000000" stroke="none" 
	d="
M75.947433,95.118164 
	C82.548759,101.141838 88.972893,107.476547 95.985474,114.164185 
	C97.346947,115.921715 98.772087,117.319946 98.785912,118.731987 
	C98.868286,127.148491 98.624771,135.568176 98.420532,143.524475 
	C98.350418,135.027893 98.350418,126.993599 98.350418,118.959312 
	C97.876312,118.960602 97.402214,118.961891 96.928108,118.963181 
	C96.928108,127.671036 96.928108,136.378876 96.928108,145.086731 
	C95.957550,144.829376 94.618683,144.890762 94.075699,144.263367 
	C90.325165,139.929733 86.740562,135.452530 82.958908,130.748459 
	C82.735481,128.376328 83.011856,126.188118 82.513039,124.193802 
	C80.589783,116.504272 78.359344,108.892021 76.382965,101.215027 
	C75.904625,99.356979 75.960182,97.361488 75.947433,95.118164 
z"/>
<path fill="#4A8B47" opacity="1.000000" stroke="none" 
	d="
M98.490646,143.986786 
	C98.624771,135.568176 98.868286,127.148491 98.785912,118.731987 
	C98.772087,117.319946 97.346947,115.921715 96.308548,114.268753 
	C96.114334,112.646683 96.185478,111.272964 96.411766,109.538940 
	C97.032288,109.201675 97.903290,109.264702 97.905518,109.242065 
	C98.172462,106.534447 98.375114,103.820480 98.746445,100.815086 
	C98.911728,104.773605 98.911728,109.023895 98.911728,114.352379 
	C105.960922,107.392792 112.170662,101.261993 118.665115,94.931816 
	C118.679871,97.453400 118.698097,100.240929 118.087761,102.883270 
	C115.964165,112.076851 113.622726,121.220116 111.299255,130.766357 
	C107.533714,135.938889 103.833023,140.727570 99.701309,145.748520 
	C99.004707,145.959015 98.742790,145.980972 98.484528,146.046646 
	C98.403847,145.894257 98.323158,145.741852 98.273193,145.072388 
	C98.366158,144.365799 98.428406,144.176285 98.490646,143.986786 
z"/>
<path fill="#78B078" opacity="1.000000" stroke="none" 
	d="
M49.403126,51.943321 
	C57.124176,64.803871 64.845222,77.664413 72.643738,90.876060 
	C64.820213,86.368080 56.919231,81.509010 48.814255,76.437622 
	C48.587471,75.672768 48.564682,75.120209 48.689507,73.792572 
	C48.720963,66.756508 48.604813,60.495529 48.488663,54.234554 
	C48.444359,53.733788 48.400055,53.233021 48.650536,52.365555 
	C48.945320,51.998859 49.403126,51.943321 49.403126,51.943321 
z"/>
<path fill="#201F1F" opacity="1.000000" stroke="none" 
	d="
M98.420532,143.524475 
	C98.428406,144.176285 98.366158,144.365799 98.182335,144.830200 
	C97.872292,145.087540 97.683815,145.069992 97.211716,145.069580 
	C96.928108,136.378876 96.928108,127.671036 96.928108,118.963181 
	C97.402214,118.961891 97.876312,118.960602 98.350418,118.959312 
	C98.350418,126.993599 98.350418,135.027893 98.420532,143.524475 
z"/>
<path fill="#5F9A66" opacity="1.000000" stroke="none" 
	d="
M48.378571,54.666367 
	C48.604813,60.495529 48.720963,66.756508 48.703560,73.378746 
	C48.469501,67.526070 48.368992,61.312122 48.378571,54.666367 
z"/>
<path fill="#7AB043" opacity="1.000000" stroke="none" 
	d="
M145.981155,50.734512 
	C145.603958,50.969517 145.270966,51.034573 144.817230,50.979088 
	C145.139435,50.760551 145.582413,50.662556 145.981155,50.734512 
z"/>
<path fill="#397D46" opacity="1.000000" stroke="none" 
	d="
M96.335007,102.462051 
	C96.085037,102.083076 95.948769,101.553009 95.932159,100.768372 
	C96.184120,101.112846 96.316414,101.711899 96.335007,102.462051 
z"/>
<path fill="#5F9A66" opacity="1.000000" stroke="none" 
	d="
M49.313232,51.690460 
	C49.403126,51.943321 48.945320,51.998859 48.714790,51.992611 
	C48.541737,51.594074 48.599216,51.201782 48.802856,50.892876 
	C49.040451,51.130039 49.131897,51.283817 49.313232,51.690460 
z"/>
<path fill="#397D46" opacity="1.000000" stroke="none" 
	d="
M98.535774,146.211212 
	C98.742790,145.980972 99.004707,145.959015 99.465332,146.010071 
	C99.302589,146.151489 98.944809,146.263626 98.535774,146.211212 
z"/>
<path fill="#9CC654" opacity="1.000000" stroke="none" 
	d="
M122.662613,91.217667 
	C129.898300,78.634712 137.462280,65.949905 145.305481,53.132553 
	C145.653763,59.932415 145.884903,66.869713 145.676575,73.793785 
	C145.625290,75.498222 144.589035,77.839439 143.241318,78.725639 
	C136.632797,83.071083 129.766281,87.024124 122.662613,91.217667 
z"/>
</svg>